<?xml version="1.0" encoding="UTF-8" standalone="no"?>
<!-- Created with Inkscape (http://www.inkscape.org/) -->

<svg
   version="1.1"
   id="svg1"
   width="570"
   height="570"
   viewBox="0 0 570.00002 570.00001"
   sodipodi:docname="Лого КСК.svg"
   inkscape:export-filename="main KCK\images\resource\welcome.jpg"
   inkscape:export-xdpi="96"
   inkscape:export-ydpi="96"
   inkscape:version="1.3.2 (091e20e, 2023-11-25, custom)"
   xmlns:inkscape="http://www.inkscape.org/namespaces/inkscape"
   xmlns:sodipodi="http://sodipodi.sourceforge.net/DTD/sodipodi-0.dtd"
   xmlns="http://www.w3.org/2000/svg"
   xmlns:svg="http://www.w3.org/2000/svg">
  <defs
     id="defs1" />
  <sodipodi:namedview
     id="namedview1"
     pagecolor="#ffffff"
     bordercolor="#000000"
     borderopacity="0.25"
     inkscape:showpageshadow="2"
     inkscape:pageopacity="0.0"
     inkscape:pagecheckerboard="false"
     inkscape:deskcolor="#d1d1d1"
     inkscape:zoom="1.0926545"
     inkscape:cx="389.87623"
     inkscape:cy="285.08555"
     inkscape:window-width="1920"
     inkscape:window-height="1009"
     inkscape:window-x="-8"
     inkscape:window-y="357"
     inkscape:window-maximized="1"
     inkscape:current-layer="g1"
     labelstyle="default"
     inkscape:export-bgcolor="#ffffffff" />
  <g
     inkscape:groupmode="layer"
     inkscape:label="Image"
     id="g1"
     style="display:inline"
     transform="translate(-25.153923,-202.9247)">
    <path
       style="display:inline;fill:#000000;stroke-width:2.62943"
       d="m 66.374316,575.25533 c 1.235407,-4.49216 2.633072,-9.05566 3.106045,-10.14103 0.473035,-1.0855 1.927873,-6.41379 3.233131,-11.84084 1.305215,-5.42703 2.697541,-10.31138 3.094006,-10.85408 0.396471,-0.54274 1.836948,-5.64906 3.20108,-11.34743 1.364169,-5.69839 2.777918,-10.80478 3.141742,-11.34746 0.36382,-0.54275 1.575752,-4.761 2.693032,-9.37397 1.117421,-4.613 2.56512,-9.71932 3.217247,-11.34745 4.400074,-10.98511 5.31211,-10.36075 -15.133651,-10.36075 -11.152272,0 -17.10431,-0.35423 -17.10431,-1.01823 0,-0.5601 0.564189,-2.48567 1.253887,-4.279 0.689677,-1.79335 2.168398,-7.66246 3.286136,-13.04255 1.117711,-5.38009 2.366326,-10.23712 2.774649,-10.79345 0.408264,-0.5564 1.792067,-6.06339 3.074924,-12.2379 1.282897,-6.17456 2.681384,-11.71378 3.107751,-12.30944 0.426304,-0.59557 1.874398,-6.18935 3.217823,-12.43044 1.343448,-6.24109 3.360818,-14.23361 4.483135,-17.76121 l 2.040588,-6.41374 25.162369,-0.26223 25.16237,-0.26222 v 1.05762 c 0,0.95272 -13.0098,58.21147 -14.17161,62.37226 l -0.48254,1.72765 2.54026,-1.04923 c 1.39705,-0.57725 3.5704,-2.30808 4.82954,-3.84654 1.25899,-1.53836 6.98915,-7.34202 12.73348,-12.89676 5.74435,-5.55474 13.91808,-13.52596 18.16391,-17.7138 16.12097,-15.90094 24.83358,-24.28427 27.96338,-26.9065 l 3.23874,-2.71343 h 34.8194 34.81931 l -9.28652,9.12728 c -5.10765,5.02004 -14.20798,14.02329 -20.223,20.00727 -6.01505,5.98401 -16.45373,16.18507 -23.19708,22.66901 -6.74336,6.48395 -17.18478,16.68501 -23.20316,22.66898 -6.0184,5.98397 -16.42003,16.20835 -23.11479,22.72077 -6.69475,6.51246 -17.42195,16.94718 -23.83822,23.18826 -6.41629,6.24112 -14.86131,14.45568 -18.76675,18.25463 -8.44339,8.21316 -36.711478,35.7903 -43.38035,42.31998 l -4.702064,4.60391 z m 329.335704,-1.04357 c 1.49663,-5.00364 3.68398,-12.87184 4.86148,-17.48482 1.17748,-4.61297 2.75198,-9.94134 3.49894,-11.8408 0.74683,-1.89959 2.22092,-7.22782 3.27605,-11.84079 1.05489,-4.61299 2.25978,-8.83454 2.67702,-9.38124 0.41741,-0.54666 1.84538,-5.64979 3.17314,-11.34018 1.32742,-5.69046 2.73961,-10.79355 3.13805,-11.34023 1.09523,-1.50346 3.52166,-11.19064 2.9567,-11.80445 -0.27186,-0.29536 -8.19118,-0.53709 -17.59859,-0.53709 h -17.1043 v -1.28278 c 0,-0.70514 0.40295,-1.72064 0.89582,-2.25592 0.49301,-0.53513 1.92278,-6.01726 3.17753,-12.1823 1.25533,-6.16508 2.6275,-11.69938 3.04988,-12.29844 0.42207,-0.59909 1.90075,-6.41762 3.28533,-12.93007 1.38474,-6.51246 2.83022,-12.28485 3.21256,-12.82754 0.38226,-0.54274 1.6017,-5.35084 2.70959,-10.68469 1.10832,-5.33385 2.55594,-10.83127 3.21727,-12.21649 0.66127,-1.38512 1.47382,-4.65828 1.80467,-7.27361 0.33137,-2.61537 1.12698,-5.22851 1.76899,-5.80722 l 1.16717,-1.05235 24.91871,0.26223 24.91867,0.26222 -7.41909,32.31557 c -4.08064,17.77354 -7.17011,32.2998 -6.86555,32.28057 1.2518,-0.0799 4.50928,-2.7904 10.05367,-8.36917 11.63903,-11.71088 18.94795,-18.92656 30.46709,-30.07848 6.44659,-6.24114 14.91831,-14.56156 18.82605,-18.4899 8.87303,-8.91967 5.14436,-8.25754 44.6762,-7.9335 l 33.53848,0.27647 -10.41483,10.36066 c -19.95696,19.85334 -62.24022,61.18876 -81.57501,79.74641 -3.21242,3.08337 -6.49309,6.27213 -7.29025,7.0862 -0.79714,0.81412 -7.7729,7.68664 -15.50173,15.27235 -7.72873,7.58575 -16.3,16.06177 -19.04732,18.83565 -2.74714,2.77386 -7.03846,7.00206 -9.53601,9.39605 -2.49747,2.39387 -4.74529,4.59702 -4.99502,4.89576 -0.79857,0.95487 -34.65487,33.88666 -37.70625,36.67629 l -2.93563,2.68379 z m -230.95178,-26.5576 c -8.71517,-10.95983 -17.18557,-21.8284 -18.8231,-24.15236 l -2.97732,-4.22539 3.81551,-3.72288 c 2.09858,-2.04756 4.46009,-4.43257 5.24782,-5.29993 17.7104,-19.5001 26.88822,-25.79264 30.44107,-20.87115 3.42339,4.74222 54.37817,69.59367 59.69748,75.97853 l 1.8495,2.22027 h -31.70252 -31.70263 z m 106.13044,18.89421 c -18.21332,-1.77249 -29.75083,-8.86075 -35.6135,-21.87995 l -2.44234,-5.42384 -1.04728,-9.01856 -1.04727,-9.01854 1.0972,-11.91972 c 1.08818,-11.82493 3.18011,-24.25358 4.72055,-28.0459 0.4406,-1.08548 1.88791,-5.95854 3.21605,-10.8291 1.32781,-4.87064 2.98623,-9.74275 3.68528,-10.82698 0.69851,-1.08432 1.27087,-2.73909 1.27087,-3.67727 0,-5.79946 13.96004,-29.09757 22.05777,-36.81253 18.22413,-17.36267 29.94043,-20.1394 85.56311,-20.27815 l 39.96052,-0.0994 -0.30748,1.79238 c -0.43803,2.55467 -9.70647,39.44666 -11.17196,44.46874 l -1.22311,4.19362 h -27.43405 c -46.77094,0 -54.08889,6.04419 -60.39558,49.88287 l -1.00087,6.95993 1.2701,2.85763 c 0.69851,1.5715 2.70066,3.76808 4.449,4.88087 l 3.17869,2.0233 32.96383,0.31328 32.96383,0.31329 -0.43222,1.6604 c -0.36202,1.39136 -7.12268,28.92681 -10.94589,44.58331 l -1.0845,4.4403 -37.1768,0.11502 c -20.44732,0.0624 -40.72982,-0.23082 -45.07236,-0.65386 z m 227.17279,-13.38692 c -6.21559,-7.93084 -14.46836,-18.44159 -18.3395,-23.35724 -8.50299,-10.79714 -8.45986,-9.98815 -0.90829,-17.05778 3.37172,-3.15639 9.00857,-8.65003 12.5264,-12.20797 10.88208,-11.00623 15.81717,-15.84304 16.16506,-15.84304 0.18306,0 5.18476,6.29564 11.11346,13.99029 5.92865,7.69464 11.60741,14.93176 12.61946,16.08241 1.01216,1.15078 2.8619,3.40675 4.11068,5.01342 1.24906,1.6068 5.57532,7.13554 9.61463,12.2862 4.03925,5.15071 7.71742,10.10511 8.17376,11.00979 0.45655,0.90458 2.67725,3.79085 4.93505,6.41374 6.23874,7.24688 13.60429,16.68173 13.60429,17.42632 0,0.36494 -14.02064,0.66361 -31.15706,0.66361 h -31.15702 z"
       id="path12" />
    <g
       id="g12"
       style="display:inline"
       transform="matrix(2.5640331,0,0,2.9121662,-19.724362,348.81671)">
      <path
         style="display:inline;fill:#ff0000;stroke-width:0.457601"
         d="m 201.34454,69.463952 c -2.13929,-2.536883 -5.3069,-6.376774 -7.03914,-8.533091 l -3.14953,-3.920577 4.71088,-4.464074 c 5.1024,-4.835089 7.94737,-7.243689 8.55605,-7.243689 0.21247,0 4.11464,4.375812 8.67149,9.724026 16.20594,19.020376 15.70545,18.38998 14.87006,18.729488 -0.42094,0.171071 -5.70744,0.313151 -11.74777,0.315735 l -10.98243,0.0047 z"
         id="path11" />
      <path
         style="fill:#ff0000;stroke-width:0.228801"
         d="m 29.841571,77.647224 c 0.628466,-1.60816 2.285261,-6.673446 2.887135,-8.826773 0.397033,-1.42047 1.28487,-4.332999 1.972969,-6.472284 0.688099,-2.139286 1.919857,-6.103257 2.73724,-8.808824 0.817383,-2.705567 1.582595,-5.017025 1.70047,-5.136574 0.385923,-0.391397 0.242856,-1.927709 -0.222886,-2.393451 -0.520907,-0.520908 -1.500247,-0.629158 -7.914016,-0.874764 l -4.576012,-0.175234 0.04674,-0.65596 c 0.07245,-1.016783 5.883131,-22.664368 7.255149,-27.028914 l 1.22272,-3.88961 9.341626,0.06656 c 5.137893,0.03661 9.388182,0.113117 9.445085,0.17002 0.0569,0.0569 -1.054254,4.832172 -2.469235,10.611708 -1.414983,5.779537 -2.629031,10.928262 -2.697886,11.441612 -0.117813,0.878357 -0.09118,0.933363 0.451954,0.933363 0.317429,0 1.048813,-0.334621 1.625294,-0.743602 0.576484,-0.408981 6.485676,-5.625971 13.131538,-11.59331 l 12.083388,-10.849708 12.918362,0.05679 c 7.105101,0.03124 12.949184,0.08762 12.986864,0.125296 0.0377,0.03768 -3.668374,3.455236 -8.235669,7.594577 -31.87074,28.88446 -62.203127,55.972251 -63.422612,56.638418 -0.372321,0.20339 -0.411018,0.176071 -0.268216,-0.189339 z"
         id="path13" />
      <path
         style="fill:#ff0000;stroke-width:0.228801"
         d="m 73.766418,72.472594 c -0.75975,-0.786502 -1.990956,-2.202206 -2.736013,-3.146009 -0.745058,-0.943802 -3.337978,-4.055127 -5.762046,-6.914055 -2.424068,-2.858927 -4.407396,-5.343907 -4.407396,-5.522177 0,-0.178269 1.643552,-1.788979 3.652337,-3.579353 4.387155,-3.91015 6.316259,-5.47425 8.092657,-6.561456 1.129673,-0.691392 1.417068,-0.779203 1.871931,-0.571953 0.982074,0.447463 23.989539,27.301233 23.602031,27.547736 -0.14721,0.09364 -5.367166,0.171841 -11.599898,0.173768 l -11.33224,0.0035 z"
         id="path14" />
      <path
         style="fill:#ff0000;stroke-width:0.228801"
         d="M 122.75153,73.661295 C 107.60574,73.39984 106.52191,73.291048 103.22809,71.70157 96.167982,68.294614 93.913547,60.450387 96.435569,48.067224 c 0.766421,-3.763143 1.859001,-7.746674 2.652458,-9.670825 0.373567,-0.905909 0.838195,-2.260641 1.032503,-3.010514 0.90693,-3.499929 4.636,-9.454376 8.28883,-13.235279 4.5045,-4.662448 7.88417,-6.623285 12.74056,-7.391901 5.20675,-0.824066 35.22505,-1.693552 36.24186,-1.049752 0.53122,0.336345 0.17191,2.127721 -1.97717,9.85751 l -2.0038,7.207219 -9.37241,0.260713 c -13.4877,0.375187 -14.39526,0.47532 -17.42078,1.922059 -3.92353,1.876151 -5.89103,5.180201 -7.42489,12.468716 -0.50986,2.422744 -0.8338,6.531186 -0.59118,7.497867 0.21073,0.839622 1.26231,2.0009 2.14636,2.370285 1.11341,0.465209 5.57915,0.733168 16.3996,0.984028 5.76004,0.133541 9.68231,0.313507 9.81934,0.45054 0.15171,0.151706 0.12914,0.671665 -0.0673,1.551424 -0.37489,1.678712 -3.09024,12.030835 -3.69288,14.078879 l -0.45444,1.544404 -5.19552,-0.03771 c -2.85754,-0.02074 -9.51986,-0.112357 -14.80515,-0.203596 z"
         id="path15" />
      <path
         style="fill:#ff0000;stroke-width:0.228801"
         d="m 160.16043,77.963749 c 0,-0.03149 0.41661,-1.292756 0.9258,-2.802808 0.5092,-1.510052 2.05814,-6.503598 3.44211,-11.09677 1.38397,-4.593172 2.82541,-9.268383 3.20322,-10.38936 0.3778,-1.120976 0.62818,-2.191209 0.55639,-2.378295 -0.0718,-0.187086 0.0161,-0.505448 0.19529,-0.70747 0.37982,-0.428177 1.28681,-3.264603 1.28681,-4.024207 0,-1.023153 -0.39492,-1.104075 -6.36447,-1.304108 -3.10616,-0.104084 -5.88981,-0.244842 -6.1859,-0.312794 -0.47508,-0.109032 -0.52111,-0.215349 -0.39178,-0.904748 0.16023,-0.854134 2.73665,-10.44076 6.10205,-22.705181 l 2.14969,-7.834071 9.55243,-0.0023 c 5.63342,-0.0014 9.55242,0.08363 9.55242,0.207229 0,0.115269 -1.02092,4.516821 -2.26871,9.781226 -2.44334,10.308427 -2.86315,12.316378 -2.64784,12.664751 0.47821,0.773772 2.04428,-0.363215 8.34856,-6.061171 15.11117,-13.657818 17.90569,-16.068035 18.97425,-16.364874 0.49601,-0.137789 5.71624,-0.223808 13.28664,-0.218937 l 12.46963,0.008 -0.7085,0.619903 c -0.38967,0.340947 -8.06021,7.264201 -17.04564,15.38501 -19.67896,17.78535 -48.07977,43.38334 -50.77164,45.761077 -2.3538,2.079123 -3.66081,3.035928 -3.66081,2.679926 z"
         id="path16" />
    </g>
  </g>
</svg>
